<?xml version="1.0" encoding="UTF-8"?>
<svg width="22px" height="23px" viewBox="0 0 22 23" version="1.1" xmlns="http://www.w3.org/2000/svg" xmlns:xlink="http://www.w3.org/1999/xlink">
    <!-- Generator: Sketch 64 (93537) - https://sketch.com -->
    <title>icon_成功</title>
    <desc>Created with Sketch.</desc>
    <defs>
        <path d="M563,1043 L1767,1043 C1769.20914,1043 1771,1044.79086 1771,1047 L1771,1520 C1771,1522.20914 1769.20914,1524 1767,1524 L563,1524 C560.790861,1524 559,1522.20914 559,1520 L559,1047 C559,1044.79086 560.790861,1043 563,1043 Z" id="path-1"></path>
        <filter x="-1.8%" y="-4.2%" width="103.6%" height="109.1%" filterUnits="objectBoundingBox" id="filter-2">
            <feOffset dx="0" dy="2" in="SourceAlpha" result="shadowOffsetOuter1"></feOffset>
            <feGaussianBlur stdDeviation="7" in="shadowOffsetOuter1" result="shadowBlurOuter1"></feGaussianBlur>
            <feColorMatrix values="0 0 0 0 0   0 0 0 0 0   0 0 0 0 0  0 0 0 0.1 0" type="matrix" in="shadowBlurOuter1"></feColorMatrix>
        </filter>
        <path d="M0,3.99590358 C0,1.78902697 1.80067907,0 3.99909955,0 L426.0009,0 C428.209542,0 430,1.79048751 430,3.99590358 L430,167.004096 C430,169.210973 428.199321,171 426.0009,171 L3.99909955,171 C1.79045786,171 0,169.209512 0,167.004096 L0,3.99590358 Z" id="path-3"></path>
        <filter x="-4.7%" y="-9.4%" width="109.3%" height="123.4%" filterUnits="objectBoundingBox" id="filter-4">
            <feOffset dx="0" dy="4" in="SourceAlpha" result="shadowOffsetOuter1"></feOffset>
            <feGaussianBlur stdDeviation="6" in="shadowOffsetOuter1" result="shadowBlurOuter1"></feGaussianBlur>
            <feColorMatrix values="0 0 0 0 0   0 0 0 0 0   0 0 0 0 0  0 0 0 0.2 0" type="matrix" in="shadowBlurOuter1"></feColorMatrix>
        </filter>
    </defs>
    <g id="基础" stroke="none" stroke-width="1" fill="none" fill-rule="evenodd">
        <g id="对话框" transform="translate(-641.000000, -1345.000000)">
            <rect fill="#FFFFFF" x="0" y="0" width="1920" height="2050"></rect>
            <g id="Rectangle-Copy-16">
                <use fill="black" fill-opacity="1" filter="url(#filter-2)" xlink:href="#path-1"></use>
                <use fill="#FFFFFF" fill-rule="evenodd" xlink:href="#path-1"></use>
            </g>
            <g id="Group-51-Copy" transform="translate(609.000000, 1313.000000)">
                <g id="Rectangle-50-Copy">
                    <use fill="black" fill-opacity="1" filter="url(#filter-4)" xlink:href="#path-3"></use>
                    <use fill="#FFFFFF" fill-rule="evenodd" xlink:href="#path-3"></use>
                </g>
                <g id="Group-48" transform="translate(32.000000, 32.000000)" fill="#52C41A">
                    <g id="_Resources/Modal/Icon/Success">
                        <g id="Icon/Success">
                            <path d="M11,22 C4.92473118,22 0,17.0752688 0,11 C0,4.92473118 4.92473118,0 11,0 C17.0752688,0 22,4.92473118 22,11 C22,17.0752688 17.0752688,22 11,22 L11,22 Z M17.6494624,13.916129 L8.71612903,5.22150538 C8.44731183,4.95268817 8.01075269,4.95268817 7.74193548,5.22150538 L4.32903226,8.48387097 C4.06021505,8.75268817 4.06021505,9.18924731 4.32903226,9.45806452 L4.32903226,9.45806452 C4.59784946,9.72688172 5.0344086,9.72688172 5.30322581,9.45806452 L8.23010753,6.68172043 L16.6752688,14.8903226 C16.944086,15.1591398 17.3806452,15.1591398 17.6494624,14.8903226 L17.6494624,14.8903226 C17.9182796,14.6215054 17.9182796,14.1849462 17.6494624,13.916129 L17.6494624,13.916129 Z" id="Shape" transform="translate(11.000000, 11.000000) scale(1, -1) translate(-11.000000, -11.000000) "></path>
                        </g>
                    </g>
                    <g id="Icon/Warning">
                        <g id="Icon/Success">
                            <path d="M11,22 C4.92473118,22 0,17.0752688 0,11 C0,4.92473118 4.92473118,0 11,0 C17.0752688,0 22,4.92473118 22,11 C22,17.0752688 17.0752688,22 11,22 L11,22 Z M17.6494624,13.916129 L8.71612903,5.22150538 C8.44731183,4.95268817 8.01075269,4.95268817 7.74193548,5.22150538 L4.32903226,8.48387097 C4.06021505,8.75268817 4.06021505,9.18924731 4.32903226,9.45806452 L4.32903226,9.45806452 C4.59784946,9.72688172 5.0344086,9.72688172 5.30322581,9.45806452 L8.23010753,6.68172043 L16.6752688,14.8903226 C16.944086,15.1591398 17.3806452,15.1591398 17.6494624,14.8903226 L17.6494624,14.8903226 C17.9182796,14.6215054 17.9182796,14.1849462 17.6494624,13.916129 L17.6494624,13.916129 Z" id="Shape" transform="translate(11.000000, 11.000000) scale(1, -1) translate(-11.000000, -11.000000) "></path>
                        </g>
                    </g>
                </g>
            </g>
        </g>
    </g>
</svg>